<svg xmlns="http://www.w3.org/2000/svg" xmlns:xlink="http://www.w3.org/1999/xlink" width="500" zoomAndPan="magnify" viewBox="0 0 375 374.999991" height="500" preserveAspectRatio="xMidYMid meet" version="1.0"><defs><g/><linearGradient x1="0" gradientTransform="matrix(0, 1.464844, -1.464844, 0, 374.999995, 0)" y1="128" x2="255.999988" gradientUnits="userSpaceOnUse" y2="128" id="4891f584bf"><stop stop-opacity="1" stop-color="rgb(63.899231%, 41.598511%, 90.19928%)" offset="0"/><stop stop-opacity="1" stop-color="rgb(64.019775%, 41.633606%, 90.107727%)" offset="0.0078125"/><stop stop-opacity="1" stop-color="rgb(64.26239%, 41.705322%, 89.923096%)" offset="0.015625"/><stop stop-opacity="1" stop-color="rgb(64.503479%, 41.775513%, 89.73999%)" offset="0.0234375"/><stop stop-opacity="1" stop-color="rgb(64.746094%, 41.845703%, 89.556885%)" offset="0.03125"/><stop stop-opacity="1" stop-color="rgb(64.988708%, 41.915894%, 89.372253%)" offset="0.0390625"/><stop stop-opacity="1" stop-color="rgb(65.231323%, 41.986084%, 89.189148%)" offset="0.046875"/><stop stop-opacity="1" stop-color="rgb(65.472412%, 42.056274%, 89.006042%)" offset="0.0546875"/><stop stop-opacity="1" stop-color="rgb(65.715027%, 42.126465%, 88.821411%)" offset="0.0625"/><stop stop-opacity="1" stop-color="rgb(65.957642%, 42.196655%, 88.638306%)" offset="0.0703125"/><stop stop-opacity="1" stop-color="rgb(66.19873%, 42.266846%, 88.4552%)" offset="0.078125"/><stop stop-opacity="1" stop-color="rgb(66.441345%, 42.337036%, 88.270569%)" offset="0.0859375"/><stop stop-opacity="1" stop-color="rgb(66.68396%, 42.407227%, 88.087463%)" offset="0.09375"/><stop stop-opacity="1" stop-color="rgb(66.926575%, 42.477417%, 87.904358%)" offset="0.101562"/><stop stop-opacity="1" stop-color="rgb(67.167664%, 42.549133%, 87.719727%)" offset="0.109375"/><stop stop-opacity="1" stop-color="rgb(67.410278%, 42.619324%, 87.536621%)" offset="0.117188"/><stop stop-opacity="1" stop-color="rgb(67.652893%, 42.689514%, 87.353516%)" offset="0.125"/><stop stop-opacity="1" stop-color="rgb(67.895508%, 42.759705%, 87.17041%)" offset="0.132812"/><stop stop-opacity="1" stop-color="rgb(68.136597%, 42.829895%, 86.985779%)" offset="0.140625"/><stop stop-opacity="1" stop-color="rgb(68.379211%, 42.900085%, 86.802673%)" offset="0.148438"/><stop stop-opacity="1" stop-color="rgb(68.621826%, 42.970276%, 86.619568%)" offset="0.15625"/><stop stop-opacity="1" stop-color="rgb(68.862915%, 43.040466%, 86.434937%)" offset="0.164062"/><stop stop-opacity="1" stop-color="rgb(69.10553%, 43.110657%, 86.251831%)" offset="0.171875"/><stop stop-opacity="1" stop-color="rgb(69.348145%, 43.180847%, 86.068726%)" offset="0.179688"/><stop stop-opacity="1" stop-color="rgb(69.590759%, 43.251038%, 85.884094%)" offset="0.1875"/><stop stop-opacity="1" stop-color="rgb(69.831848%, 43.321228%, 85.700989%)" offset="0.195312"/><stop stop-opacity="1" stop-color="rgb(70.074463%, 43.391418%, 85.517883%)" offset="0.203125"/><stop stop-opacity="1" stop-color="rgb(70.317078%, 43.463135%, 85.333252%)" offset="0.210938"/><stop stop-opacity="1" stop-color="rgb(70.558167%, 43.533325%, 85.150146%)" offset="0.21875"/><stop stop-opacity="1" stop-color="rgb(70.800781%, 43.603516%, 84.967041%)" offset="0.226562"/><stop stop-opacity="1" stop-color="rgb(71.043396%, 43.673706%, 84.78241%)" offset="0.234375"/><stop stop-opacity="1" stop-color="rgb(71.286011%, 43.743896%, 84.599304%)" offset="0.242188"/><stop stop-opacity="1" stop-color="rgb(71.5271%, 43.814087%, 84.416199%)" offset="0.25"/><stop stop-opacity="1" stop-color="rgb(71.769714%, 43.884277%, 84.231567%)" offset="0.257812"/><stop stop-opacity="1" stop-color="rgb(72.012329%, 43.954468%, 84.048462%)" offset="0.265625"/><stop stop-opacity="1" stop-color="rgb(72.253418%, 44.024658%, 83.865356%)" offset="0.273438"/><stop stop-opacity="1" stop-color="rgb(72.496033%, 44.094849%, 83.680725%)" offset="0.28125"/><stop stop-opacity="1" stop-color="rgb(72.738647%, 44.165039%, 83.49762%)" offset="0.289063"/><stop stop-opacity="1" stop-color="rgb(72.981262%, 44.235229%, 83.314514%)" offset="0.296875"/><stop stop-opacity="1" stop-color="rgb(73.222351%, 44.306946%, 83.129883%)" offset="0.304688"/><stop stop-opacity="1" stop-color="rgb(73.464966%, 44.377136%, 82.946777%)" offset="0.3125"/><stop stop-opacity="1" stop-color="rgb(73.707581%, 44.447327%, 82.763672%)" offset="0.320312"/><stop stop-opacity="1" stop-color="rgb(73.950195%, 44.517517%, 82.580566%)" offset="0.328125"/><stop stop-opacity="1" stop-color="rgb(74.191284%, 44.587708%, 82.395935%)" offset="0.335938"/><stop stop-opacity="1" stop-color="rgb(74.433899%, 44.657898%, 82.21283%)" offset="0.34375"/><stop stop-opacity="1" stop-color="rgb(74.676514%, 44.728088%, 82.029724%)" offset="0.351562"/><stop stop-opacity="1" stop-color="rgb(74.917603%, 44.798279%, 81.845093%)" offset="0.359375"/><stop stop-opacity="1" stop-color="rgb(75.160217%, 44.868469%, 81.661987%)" offset="0.367188"/><stop stop-opacity="1" stop-color="rgb(75.402832%, 44.93866%, 81.478882%)" offset="0.375"/><stop stop-opacity="1" stop-color="rgb(75.645447%, 45.00885%, 81.29425%)" offset="0.382812"/><stop stop-opacity="1" stop-color="rgb(75.886536%, 45.079041%, 81.111145%)" offset="0.390625"/><stop stop-opacity="1" stop-color="rgb(76.12915%, 45.149231%, 80.92804%)" offset="0.398438"/><stop stop-opacity="1" stop-color="rgb(76.371765%, 45.220947%, 80.743408%)" offset="0.40625"/><stop stop-opacity="1" stop-color="rgb(76.612854%, 45.291138%, 80.560303%)" offset="0.414062"/><stop stop-opacity="1" stop-color="rgb(76.855469%, 45.361328%, 80.377197%)" offset="0.421875"/><stop stop-opacity="1" stop-color="rgb(77.098083%, 45.431519%, 80.192566%)" offset="0.429688"/><stop stop-opacity="1" stop-color="rgb(77.340698%, 45.501709%, 80.00946%)" offset="0.4375"/><stop stop-opacity="1" stop-color="rgb(77.581787%, 45.571899%, 79.826355%)" offset="0.445312"/><stop stop-opacity="1" stop-color="rgb(77.824402%, 45.64209%, 79.641724%)" offset="0.453125"/><stop stop-opacity="1" stop-color="rgb(78.067017%, 45.71228%, 79.458618%)" offset="0.460938"/><stop stop-opacity="1" stop-color="rgb(78.308105%, 45.782471%, 79.275513%)" offset="0.46875"/><stop stop-opacity="1" stop-color="rgb(78.55072%, 45.852661%, 79.090881%)" offset="0.476562"/><stop stop-opacity="1" stop-color="rgb(78.793335%, 45.922852%, 78.907776%)" offset="0.484375"/><stop stop-opacity="1" stop-color="rgb(79.03595%, 45.993042%, 78.72467%)" offset="0.492188"/><stop stop-opacity="1" stop-color="rgb(79.277039%, 46.064758%, 78.540039%)" offset="0.5"/><stop stop-opacity="1" stop-color="rgb(79.519653%, 46.134949%, 78.356934%)" offset="0.507812"/><stop stop-opacity="1" stop-color="rgb(79.762268%, 46.205139%, 78.173828%)" offset="0.515625"/><stop stop-opacity="1" stop-color="rgb(80.004883%, 46.27533%, 77.990723%)" offset="0.523438"/><stop stop-opacity="1" stop-color="rgb(80.245972%, 46.34552%, 77.806091%)" offset="0.53125"/><stop stop-opacity="1" stop-color="rgb(80.488586%, 46.41571%, 77.622986%)" offset="0.539062"/><stop stop-opacity="1" stop-color="rgb(80.731201%, 46.485901%, 77.43988%)" offset="0.546875"/><stop stop-opacity="1" stop-color="rgb(80.97229%, 46.556091%, 77.255249%)" offset="0.554688"/><stop stop-opacity="1" stop-color="rgb(81.214905%, 46.626282%, 77.072144%)" offset="0.5625"/><stop stop-opacity="1" stop-color="rgb(81.45752%, 46.696472%, 76.889038%)" offset="0.570312"/><stop stop-opacity="1" stop-color="rgb(81.700134%, 46.766663%, 76.704407%)" offset="0.578125"/><stop stop-opacity="1" stop-color="rgb(81.941223%, 46.836853%, 76.521301%)" offset="0.585938"/><stop stop-opacity="1" stop-color="rgb(82.183838%, 46.907043%, 76.338196%)" offset="0.59375"/><stop stop-opacity="1" stop-color="rgb(82.426453%, 46.97876%, 76.153564%)" offset="0.601563"/><stop stop-opacity="1" stop-color="rgb(82.667542%, 47.04895%, 75.970459%)" offset="0.609375"/><stop stop-opacity="1" stop-color="rgb(82.910156%, 47.119141%, 75.787354%)" offset="0.617188"/><stop stop-opacity="1" stop-color="rgb(83.152771%, 47.189331%, 75.602722%)" offset="0.625"/><stop stop-opacity="1" stop-color="rgb(83.395386%, 47.259521%, 75.419617%)" offset="0.632812"/><stop stop-opacity="1" stop-color="rgb(83.636475%, 47.329712%, 75.236511%)" offset="0.640625"/><stop stop-opacity="1" stop-color="rgb(83.879089%, 47.399902%, 75.05188%)" offset="0.648438"/><stop stop-opacity="1" stop-color="rgb(84.121704%, 47.470093%, 74.868774%)" offset="0.65625"/><stop stop-opacity="1" stop-color="rgb(84.362793%, 47.540283%, 74.685669%)" offset="0.664063"/><stop stop-opacity="1" stop-color="rgb(84.605408%, 47.610474%, 74.501038%)" offset="0.671875"/><stop stop-opacity="1" stop-color="rgb(84.848022%, 47.680664%, 74.317932%)" offset="0.679688"/><stop stop-opacity="1" stop-color="rgb(85.090637%, 47.750854%, 74.134827%)" offset="0.6875"/><stop stop-opacity="1" stop-color="rgb(85.331726%, 47.822571%, 73.950195%)" offset="0.695313"/><stop stop-opacity="1" stop-color="rgb(85.574341%, 47.892761%, 73.76709%)" offset="0.703125"/><stop stop-opacity="1" stop-color="rgb(85.816956%, 47.962952%, 73.583984%)" offset="0.710938"/><stop stop-opacity="1" stop-color="rgb(86.05957%, 48.033142%, 73.400879%)" offset="0.71875"/><stop stop-opacity="1" stop-color="rgb(86.300659%, 48.103333%, 73.216248%)" offset="0.726562"/><stop stop-opacity="1" stop-color="rgb(86.543274%, 48.173523%, 73.033142%)" offset="0.734375"/><stop stop-opacity="1" stop-color="rgb(86.785889%, 48.243713%, 72.850037%)" offset="0.742188"/><stop stop-opacity="1" stop-color="rgb(87.026978%, 48.313904%, 72.665405%)" offset="0.75"/><stop stop-opacity="1" stop-color="rgb(87.269592%, 48.384094%, 72.4823%)" offset="0.757812"/><stop stop-opacity="1" stop-color="rgb(87.512207%, 48.454285%, 72.299194%)" offset="0.765625"/><stop stop-opacity="1" stop-color="rgb(87.754822%, 48.524475%, 72.114563%)" offset="0.773438"/><stop stop-opacity="1" stop-color="rgb(87.995911%, 48.594666%, 71.931458%)" offset="0.78125"/><stop stop-opacity="1" stop-color="rgb(88.238525%, 48.664856%, 71.748352%)" offset="0.789062"/><stop stop-opacity="1" stop-color="rgb(88.48114%, 48.736572%, 71.563721%)" offset="0.796875"/><stop stop-opacity="1" stop-color="rgb(88.722229%, 48.806763%, 71.380615%)" offset="0.804688"/><stop stop-opacity="1" stop-color="rgb(88.964844%, 48.876953%, 71.19751%)" offset="0.8125"/><stop stop-opacity="1" stop-color="rgb(89.207458%, 48.947144%, 71.012878%)" offset="0.820313"/><stop stop-opacity="1" stop-color="rgb(89.450073%, 49.017334%, 70.829773%)" offset="0.828125"/><stop stop-opacity="1" stop-color="rgb(89.691162%, 49.087524%, 70.646667%)" offset="0.835938"/><stop stop-opacity="1" stop-color="rgb(89.933777%, 49.157715%, 70.462036%)" offset="0.84375"/><stop stop-opacity="1" stop-color="rgb(90.176392%, 49.227905%, 70.278931%)" offset="0.851562"/><stop stop-opacity="1" stop-color="rgb(90.41748%, 49.298096%, 70.095825%)" offset="0.859375"/><stop stop-opacity="1" stop-color="rgb(90.660095%, 49.368286%, 69.911194%)" offset="0.867188"/><stop stop-opacity="1" stop-color="rgb(90.90271%, 49.438477%, 69.728088%)" offset="0.875"/><stop stop-opacity="1" stop-color="rgb(91.145325%, 49.508667%, 69.544983%)" offset="0.882812"/><stop stop-opacity="1" stop-color="rgb(91.386414%, 49.580383%, 69.360352%)" offset="0.890625"/><stop stop-opacity="1" stop-color="rgb(91.629028%, 49.650574%, 69.177246%)" offset="0.898438"/><stop stop-opacity="1" stop-color="rgb(91.871643%, 49.720764%, 68.994141%)" offset="0.90625"/><stop stop-opacity="1" stop-color="rgb(92.114258%, 49.790955%, 68.811035%)" offset="0.914062"/><stop stop-opacity="1" stop-color="rgb(92.355347%, 49.861145%, 68.626404%)" offset="0.921875"/><stop stop-opacity="1" stop-color="rgb(92.597961%, 49.931335%, 68.443298%)" offset="0.929688"/><stop stop-opacity="1" stop-color="rgb(92.840576%, 50.001526%, 68.260193%)" offset="0.9375"/><stop stop-opacity="1" stop-color="rgb(93.081665%, 50.071716%, 68.075562%)" offset="0.945312"/><stop stop-opacity="1" stop-color="rgb(93.32428%, 50.141907%, 67.892456%)" offset="0.953125"/><stop stop-opacity="1" stop-color="rgb(93.566895%, 50.212097%, 67.709351%)" offset="0.960938"/><stop stop-opacity="1" stop-color="rgb(93.809509%, 50.282288%, 67.524719%)" offset="0.96875"/><stop stop-opacity="1" stop-color="rgb(94.050598%, 50.352478%, 67.341614%)" offset="0.976562"/><stop stop-opacity="1" stop-color="rgb(94.293213%, 50.422668%, 67.158508%)" offset="0.984375"/><stop stop-opacity="1" stop-color="rgb(94.535828%, 50.494385%, 66.973877%)" offset="0.992188"/><stop stop-opacity="1" stop-color="rgb(94.776917%, 50.564575%, 66.790771%)" offset="1"/></linearGradient></defs><rect x="-37.5" width="450" fill="#ffffff" y="-37.499999" height="449.999989" fill-opacity="1"/><rect x="-37.5" width="450" fill="#ffffff" y="-37.499999" height="449.999989" fill-opacity="1"/><rect x="-37.5" fill="url(#4891f584bf)" width="450" y="-37.499999" height="449.999989"/><g fill="#ffffff" fill-opacity="1"><g transform="translate(34.89587, 156.120589)"><g><path d="M -0.375 6.625 C 0.226562 4.789062 3.171875 -1.675781 8.453125 -12.78125 C 16.210938 -29.632812 21.414062 -40.953125 24.0625 -46.734375 C 24.507812 -47.753906 24.734375 -48.59375 24.734375 -49.25 C 24.734375 -50.363281 24 -50.921875 22.53125 -50.921875 C 20.550781 -50.921875 18.875 -50.300781 17.5 -49.0625 C 16.132812 -47.820312 15.109375 -46.257812 14.421875 -44.375 C 13.734375 -42.5 13.390625 -40.597656 13.390625 -38.671875 C 13.390625 -37.609375 13.492188 -36.390625 13.703125 -35.015625 C 12.023438 -35.015625 10.703125 -35.738281 9.734375 -37.1875 C 8.773438 -38.632812 8.296875 -40.21875 8.296875 -41.9375 C 8.296875 -44.019531 9.082031 -46.0625 10.65625 -48.0625 C 12.226562 -50.070312 14.242188 -51.695312 16.703125 -52.9375 C 19.171875 -54.1875 21.597656 -54.8125 23.984375 -54.8125 C 25.960938 -54.8125 27.597656 -54.265625 28.890625 -53.171875 C 30.179688 -52.078125 31.171875 -50.160156 31.859375 -47.421875 C 32.546875 -44.679688 32.890625 -40.851562 32.890625 -35.9375 C 32.890625 -32.382812 32.609375 -26.875 32.046875 -19.40625 C 31.640625 -13.925781 31.4375 -10.425781 31.4375 -8.90625 C 32.957031 -13.476562 35.113281 -18.578125 37.90625 -24.203125 C 40.695312 -29.835938 43.472656 -35.050781 46.234375 -39.84375 C 49.003906 -44.644531 51.175781 -48.210938 52.75 -50.546875 C 53.5625 -51.816406 54.242188 -52.691406 54.796875 -53.171875 C 55.359375 -53.648438 56.070312 -53.890625 56.9375 -53.890625 C 57.644531 -53.890625 58.765625 -53.613281 60.296875 -53.0625 C 59.273438 -50.875 57.953125 -46.429688 56.328125 -39.734375 C 54.703125 -33.035156 53.289062 -25.992188 52.09375 -18.609375 C 50.90625 -11.222656 50.3125 -5.273438 50.3125 -0.765625 C 50.3125 0.804688 50.390625 1.972656 50.546875 2.734375 C 50.703125 3.492188 50.914062 4.242188 51.1875 4.984375 C 51.46875 5.722656 51.6875 6.269531 51.84375 6.625 C 49.65625 6.625 48.003906 6.304688 46.890625 5.671875 C 45.773438 5.035156 45.015625 4.019531 44.609375 2.625 C 44.203125 1.226562 44 -0.734375 44 -3.265625 C 44 -8.347656 44.546875 -13.726562 45.640625 -19.40625 C 46.734375 -25.09375 48.34375 -32.046875 50.46875 -40.265625 C 47.269531 -35.703125 43.765625 -29.234375 39.953125 -20.859375 C 36.148438 -12.484375 33.335938 -5.609375 31.515625 -0.234375 L 30.984375 -0.078125 C 30.628906 0.078125 30.273438 0.15625 29.921875 0.15625 C 28.242188 0.15625 27.140625 -0.804688 26.609375 -2.734375 C 26.078125 -4.671875 25.8125 -7.742188 25.8125 -11.953125 C 25.8125 -14.535156 25.910156 -18.875 26.109375 -24.96875 C 26.316406 -31.363281 26.421875 -36.03125 26.421875 -38.96875 L 26.34375 -43.46875 L 18.5 -25.046875 C 14.738281 -16.109375 11.929688 -9.625 10.078125 -5.59375 C 8.234375 -1.5625 6.484375 1.476562 4.828125 3.53125 C 3.179688 5.59375 1.445312 6.625 -0.375 6.625 Z M -0.375 6.625 "/></g></g></g><g fill="#ffffff" fill-opacity="1"><g transform="translate(94.410269, 156.120589)"><g><path d="M 15.078125 -32.046875 C 14.003906 -32.046875 13.097656 -32.300781 12.359375 -32.8125 C 11.628906 -33.320312 11.265625 -34.054688 11.265625 -35.015625 C 11.265625 -36.179688 11.910156 -37.207031 13.203125 -38.09375 C 14.503906 -38.988281 15.890625 -39.4375 17.359375 -39.4375 C 19.535156 -39.4375 20.625 -38.492188 20.625 -36.609375 C 20.625 -35.546875 20.039062 -34.519531 18.875 -33.53125 C 17.707031 -32.539062 16.441406 -32.046875 15.078125 -32.046875 Z M 6.09375 2.28125 C 3.957031 2.28125 2.304688 1.644531 1.140625 0.375 C -0.0234375 -0.882812 -0.609375 -2.503906 -0.609375 -4.484375 C -0.609375 -6.515625 -0.0390625 -9.269531 1.09375 -12.75 C 2.238281 -16.226562 3.6875 -19.285156 5.4375 -21.921875 C 7.1875 -24.554688 8.953125 -25.875 10.734375 -25.875 C 11.390625 -25.875 11.929688 -25.679688 12.359375 -25.296875 C 12.796875 -24.921875 13.015625 -24.378906 13.015625 -23.671875 C 13.015625 -23.210938 12.8125 -22.585938 12.40625 -21.796875 C 12 -21.015625 11.335938 -19.890625 10.421875 -18.421875 C 8.804688 -15.734375 7.523438 -13.359375 6.578125 -11.296875 C 5.640625 -9.242188 5.171875 -7.304688 5.171875 -5.484375 C 5.171875 -3.910156 5.445312 -2.84375 6 -2.28125 C 6.5625 -1.726562 7.429688 -1.453125 8.609375 -1.453125 C 12.609375 -1.453125 16.585938 -5.332031 20.546875 -13.09375 L 21.703125 -11.875 C 19.921875 -7.40625 17.660156 -3.925781 14.921875 -1.4375 C 12.179688 1.039062 9.238281 2.28125 6.09375 2.28125 Z M 6.09375 2.28125 "/></g></g></g><g fill="#ffffff" fill-opacity="1"><g transform="translate(112.980155, 156.120589)"><g/></g></g><g fill="#ffffff" fill-opacity="1"><g transform="translate(132.767738, 156.120589)"><g><path d="M 38.4375 9.21875 C 36.5625 9.21875 34.226562 7.628906 31.4375 4.453125 C 28.644531 1.285156 25.851562 -2.53125 23.0625 -7 C 20.269531 -11.46875 17.882812 -15.707031 15.90625 -19.71875 C 15 -16.570312 13.476562 -11.191406 11.34375 -3.578125 L 8.453125 6.703125 C 6.878906 6.703125 5.46875 6.28125 4.21875 5.4375 C 2.976562 4.601562 2.359375 3.550781 2.359375 2.28125 C 2.359375 1.675781 2.507812 0.894531 2.8125 -0.0625 C 3.113281 -1.03125 3.316406 -1.644531 3.421875 -1.90625 C 7.328125 -13.78125 10.382812 -22.695312 12.59375 -28.65625 C 14.800781 -34.625 17.960938 -42.300781 22.078125 -51.6875 C 19.335938 -51.125 16.441406 -50.035156 13.390625 -48.421875 C 13.085938 -48.316406 12.707031 -48.148438 12.25 -47.921875 C 11.800781 -47.691406 11.472656 -47.578125 11.265625 -47.578125 C 10.804688 -47.578125 10.179688 -47.929688 9.390625 -48.640625 C 8.609375 -49.347656 8.21875 -49.984375 8.21875 -50.546875 C 11.257812 -51.765625 14.273438 -52.78125 17.265625 -53.59375 C 20.265625 -54.40625 23.363281 -54.8125 26.5625 -54.8125 C 29.914062 -54.8125 33.175781 -54.289062 36.34375 -53.25 C 39.519531 -52.207031 42.144531 -50.582031 44.21875 -48.375 C 46.300781 -46.164062 47.34375 -43.414062 47.34375 -40.125 C 47.34375 -35.757812 45.601562 -32.359375 42.125 -29.921875 C 38.65625 -27.484375 34.75 -25.832031 30.40625 -24.96875 C 26.070312 -24.101562 22.101562 -23.617188 18.5 -23.515625 L 20.484375 -20.40625 C 22.910156 -16.5 25.035156 -13.25 26.859375 -10.65625 C 28.691406 -8.070312 30.941406 -5.367188 33.609375 -2.546875 C 36.273438 0.265625 39.4375 3.066406 43.09375 5.859375 C 42.882812 6.828125 42.285156 7.628906 41.296875 8.265625 C 40.304688 8.898438 39.351562 9.21875 38.4375 9.21875 Z M 17.65625 -25.8125 C 24.101562 -26.257812 29.609375 -27.816406 34.171875 -30.484375 C 38.742188 -33.148438 41.03125 -36.867188 41.03125 -41.640625 C 41.03125 -45.242188 39.734375 -47.867188 37.140625 -49.515625 C 34.554688 -51.171875 31.3125 -52.046875 27.40625 -52.140625 C 24.5625 -46.460938 21.3125 -37.6875 17.65625 -25.8125 Z M 17.65625 -25.8125 "/></g></g></g><g fill="#ffffff" fill-opacity="1"><g transform="translate(177.898131, 156.120589)"><g><path d="M 8.828125 3.34375 C 5.628906 3.34375 3.140625 2.476562 1.359375 0.75 C -0.410156 -0.96875 -1.296875 -3.171875 -1.296875 -5.859375 C -1.296875 -8.804688 -0.304688 -11.988281 1.671875 -15.40625 C 3.648438 -18.832031 6.1875 -21.703125 9.28125 -24.015625 C 12.382812 -26.328125 15.429688 -27.484375 18.421875 -27.484375 C 19.992188 -27.484375 21.3125 -27.085938 22.375 -26.296875 C 23.445312 -25.515625 23.984375 -24.207031 23.984375 -22.375 C 23.984375 -19.945312 23.039062 -17.648438 21.15625 -15.484375 C 19.28125 -13.328125 16.859375 -11.5625 13.890625 -10.1875 C 10.921875 -8.820312 7.890625 -7.960938 4.796875 -7.609375 C 4.691406 -7.097656 4.640625 -6.515625 4.640625 -5.859375 C 4.640625 -4.535156 5.003906 -3.210938 5.734375 -1.890625 C 6.472656 -0.578125 8.0625 0.078125 10.5 0.078125 C 13.601562 0.078125 16.765625 -1.175781 19.984375 -3.6875 C 23.203125 -6.195312 25.800781 -9.332031 27.78125 -13.09375 L 29.3125 -11.875 C 27.28125 -7.3125 24.375 -3.632812 20.59375 -0.84375 C 16.8125 1.945312 12.890625 3.34375 8.828125 3.34375 Z M 5.640625 -10.421875 C 7.460938 -10.628906 9.503906 -11.367188 11.765625 -12.640625 C 14.023438 -13.910156 15.941406 -15.46875 17.515625 -17.3125 C 19.085938 -19.164062 19.875 -20.984375 19.875 -22.765625 C 19.875 -23.316406 19.769531 -23.691406 19.5625 -23.890625 C 19.363281 -24.097656 19.035156 -24.203125 18.578125 -24.203125 C 17.097656 -24.203125 15.484375 -23.503906 13.734375 -22.109375 C 11.984375 -20.710938 10.375 -18.945312 8.90625 -16.8125 C 7.4375 -14.6875 6.347656 -12.554688 5.640625 -10.421875 Z M 5.640625 -10.421875 "/></g></g></g><g fill="#ffffff" fill-opacity="1"><g transform="translate(203.850307, 156.120589)"><g><path d="M -0.078125 21.3125 C -1.296875 21.3125 -2.425781 20.78125 -3.46875 19.71875 C -4.507812 18.65625 -5.03125 16.75 -5.03125 14 C -5.03125 8.726562 -3.140625 0.410156 0.640625 -10.953125 C 4.421875 -22.328125 8.882812 -32.476562 14.03125 -41.40625 C 19.1875 -50.34375 23.898438 -54.8125 28.171875 -54.8125 C 30.296875 -54.8125 31.359375 -53.515625 31.359375 -50.921875 C 31.359375 -48.128906 30.351562 -44.957031 28.34375 -41.40625 C 26.34375 -37.851562 23.742188 -34.390625 20.546875 -31.015625 C 17.359375 -27.640625 14.035156 -24.8125 10.578125 -22.53125 L 9.359375 -19.484375 C 9.867188 -19.285156 10.285156 -18.929688 10.609375 -18.421875 C 10.941406 -17.910156 11.160156 -17.378906 11.265625 -16.828125 C 11.773438 -14.085938 12.234375 -11.976562 12.640625 -10.5 C 13.046875 -9.03125 13.664062 -7.835938 14.5 -6.921875 C 15.34375 -6.015625 16.5 -5.5625 17.96875 -5.5625 C 19.644531 -5.5625 21.15625 -6.171875 22.5 -7.390625 C 23.84375 -8.609375 25.300781 -10.507812 26.875 -13.09375 L 28.546875 -11.875 C 27.023438 -8.78125 25.257812 -6.445312 23.25 -4.875 C 21.25 -3.300781 19.359375 -2.515625 17.578125 -2.515625 C 15.859375 -2.515625 14.0625 -3.195312 12.1875 -4.5625 C 12.132812 -0.457031 11.507812 3.609375 10.3125 7.640625 C 9.125 11.679688 7.585938 14.96875 5.703125 17.5 C 3.828125 20.039062 1.898438 21.3125 -0.078125 21.3125 Z M 12.78125 -27.859375 C 15.675781 -30.597656 18.238281 -33.335938 20.46875 -36.078125 C 22.707031 -38.816406 24.421875 -41.265625 25.609375 -43.421875 C 26.804688 -45.585938 27.40625 -47.125 27.40625 -48.03125 C 27.40625 -48.4375 27.203125 -48.640625 26.796875 -48.640625 C 25.015625 -48.640625 22.878906 -46.722656 20.390625 -42.890625 C 17.910156 -39.066406 15.375 -34.054688 12.78125 -27.859375 Z M 2.0625 16.59375 C 2.96875 16.59375 3.96875 15.375 5.0625 12.9375 C 6.15625 10.5 7.09375 7.582031 7.875 4.1875 C 8.664062 0.789062 9.0625 -2.125 9.0625 -4.5625 C 9.0625 -5.988281 8.894531 -7.269531 8.5625 -8.40625 C 8.226562 -9.550781 7.65625 -10.859375 6.84375 -12.328125 C 5.019531 -6.847656 3.5625 -1.851562 2.46875 2.65625 C 1.382812 7.175781 0.84375 10.734375 0.84375 13.328125 C 0.84375 15.503906 1.25 16.59375 2.0625 16.59375 Z M 2.0625 16.59375 "/></g></g></g><g fill="#ffffff" fill-opacity="1"><g transform="translate(228.965335, 156.120589)"><g><path d="M 5.78125 2.28125 C 4.101562 2.28125 2.707031 1.492188 1.59375 -0.078125 C 0.476562 -1.648438 -0.078125 -3.503906 -0.078125 -5.640625 C -0.078125 -7.460938 0.328125 -9.742188 1.140625 -12.484375 C 1.953125 -15.222656 2.90625 -17.609375 4 -19.640625 C 5.09375 -21.671875 6.039062 -22.6875 6.84375 -22.6875 C 7.207031 -22.6875 7.753906 -22.492188 8.484375 -22.109375 C 9.222656 -21.734375 9.867188 -21.265625 10.421875 -20.703125 C 9.359375 -19.128906 8.253906 -16.867188 7.109375 -13.921875 C 5.972656 -10.984375 5.40625 -8.445312 5.40625 -6.3125 C 5.40625 -5.351562 5.546875 -4.351562 5.828125 -3.3125 C 6.109375 -2.269531 6.726562 -1.75 7.6875 -1.75 C 9.5625 -1.75 11.804688 -3.84375 14.421875 -8.03125 C 17.035156 -12.21875 19.28125 -16.46875 21.15625 -20.78125 C 24.207031 -20.269531 25.734375 -19.40625 25.734375 -18.1875 C 25.734375 -18.09375 25.425781 -17.359375 24.8125 -15.984375 C 23.75 -13.492188 22.835938 -11.179688 22.078125 -9.046875 C 21.316406 -6.921875 20.9375 -5.070312 20.9375 -3.5 C 20.9375 -1.726562 21.617188 -0.84375 22.984375 -0.84375 C 24.054688 -0.84375 25.335938 -1.335938 26.828125 -2.328125 C 28.328125 -3.316406 29.863281 -4.734375 31.4375 -6.578125 C 33.007812 -8.429688 34.378906 -10.578125 35.546875 -13.015625 L 36.6875 -12.109375 C 35.570312 -9.367188 34.125 -6.90625 32.34375 -4.71875 C 30.570312 -2.539062 28.65625 -0.832031 26.59375 0.40625 C 24.539062 1.65625 22.578125 2.28125 20.703125 2.28125 C 18.472656 2.28125 17.039062 1.507812 16.40625 -0.03125 C 15.769531 -1.582031 15.453125 -3.65625 15.453125 -6.25 C 13.722656 -3.601562 12.097656 -1.519531 10.578125 0 C 9.054688 1.519531 7.457031 2.28125 5.78125 2.28125 Z M 5.78125 2.28125 "/></g></g></g><g fill="#ffffff" fill-opacity="1"><g transform="translate(262.528144, 156.120589)"><g><path d="M 3.8125 21.3125 C 2.382812 21.3125 1.160156 20.890625 0.140625 20.046875 C -0.867188 19.210938 -1.375 18.007812 -1.375 16.4375 C -1.375 14.457031 -0.625 12.65625 0.875 11.03125 C 2.375 9.414062 4.113281 8.035156 6.09375 6.890625 C 8.070312 5.742188 10.6875 4.410156 13.9375 2.890625 C 15.195312 -0.304688 16.207031 -3.476562 16.96875 -6.625 C 12.863281 -1.445312 9.007812 1.140625 5.40625 1.140625 C 3.375 1.140625 1.757812 0.429688 0.5625 -0.984375 C -0.625 -2.410156 -1.21875 -4.289062 -1.21875 -6.625 C -1.21875 -10.019531 -0.101562 -13.238281 2.125 -16.28125 C 4.363281 -19.332031 7.128906 -21.785156 10.421875 -23.640625 C 13.722656 -25.492188 16.875 -26.421875 19.875 -26.421875 C 21.445312 -26.421875 22.648438 -26.140625 23.484375 -25.578125 C 24.316406 -25.015625 24.734375 -24.328125 24.734375 -23.515625 C 24.734375 -23.015625 24.582031 -22.5625 24.28125 -22.15625 C 23.976562 -21.75 23.722656 -21.519531 23.515625 -21.46875 C 23.015625 -21.976562 22.507812 -22.332031 22 -22.53125 C 21.488281 -22.738281 20.851562 -22.84375 20.09375 -22.84375 C 17.601562 -22.84375 15.191406 -21.914062 12.859375 -20.0625 C 10.523438 -18.207031 8.632812 -15.972656 7.1875 -13.359375 C 5.75 -10.742188 5.03125 -8.394531 5.03125 -6.3125 C 5.03125 -5.300781 5.242188 -4.53125 5.671875 -4 C 6.097656 -3.46875 6.671875 -3.203125 7.390625 -3.203125 C 8.753906 -3.203125 10.4375 -4.085938 12.4375 -5.859375 C 14.445312 -7.640625 16.441406 -9.925781 18.421875 -12.71875 C 18.984375 -15.550781 19.644531 -17.585938 20.40625 -18.828125 C 21.164062 -20.078125 22.253906 -20.703125 23.671875 -20.703125 C 24.335938 -20.703125 25.070312 -20.601562 25.875 -20.40625 C 25.875 -19.082031 25.316406 -16.441406 24.203125 -12.484375 C 23.085938 -8.523438 21.742188 -4.414062 20.171875 -0.15625 C 22.710938 -1.21875 25.160156 -2.878906 27.515625 -5.140625 C 29.878906 -7.398438 31.566406 -10 32.578125 -12.9375 L 33.953125 -11.578125 C 32.835938 -8.378906 30.84375 -5.484375 27.96875 -2.890625 C 25.101562 -0.304688 22.175781 1.671875 19.1875 3.046875 C 16.851562 8.679688 14.425781 13.132812 11.90625 16.40625 C 9.394531 19.675781 6.695312 21.3125 3.8125 21.3125 Z M 3.5 17.8125 C 4.519531 17.8125 5.835938 16.875 7.453125 15 C 9.078125 13.125 10.753906 10.28125 12.484375 6.46875 C 9.179688 8.09375 6.617188 9.628906 4.796875 11.078125 C 2.972656 12.523438 2.0625 14.0625 2.0625 15.6875 C 2.0625 16.34375 2.195312 16.859375 2.46875 17.234375 C 2.75 17.617188 3.09375 17.8125 3.5 17.8125 Z M 3.5 17.8125 "/></g></g></g><g fill="#ffffff" fill-opacity="1"><g transform="translate(293.198904, 156.120589)"><g><path d="M 15.078125 -32.046875 C 14.003906 -32.046875 13.097656 -32.300781 12.359375 -32.8125 C 11.628906 -33.320312 11.265625 -34.054688 11.265625 -35.015625 C 11.265625 -36.179688 11.910156 -37.207031 13.203125 -38.09375 C 14.503906 -38.988281 15.890625 -39.4375 17.359375 -39.4375 C 19.535156 -39.4375 20.625 -38.492188 20.625 -36.609375 C 20.625 -35.546875 20.039062 -34.519531 18.875 -33.53125 C 17.707031 -32.539062 16.441406 -32.046875 15.078125 -32.046875 Z M 6.09375 2.28125 C 3.957031 2.28125 2.304688 1.644531 1.140625 0.375 C -0.0234375 -0.882812 -0.609375 -2.503906 -0.609375 -4.484375 C -0.609375 -6.515625 -0.0390625 -9.269531 1.09375 -12.75 C 2.238281 -16.226562 3.6875 -19.285156 5.4375 -21.921875 C 7.1875 -24.554688 8.953125 -25.875 10.734375 -25.875 C 11.390625 -25.875 11.929688 -25.679688 12.359375 -25.296875 C 12.796875 -24.921875 13.015625 -24.378906 13.015625 -23.671875 C 13.015625 -23.210938 12.8125 -22.585938 12.40625 -21.796875 C 12 -21.015625 11.335938 -19.890625 10.421875 -18.421875 C 8.804688 -15.734375 7.523438 -13.359375 6.578125 -11.296875 C 5.640625 -9.242188 5.171875 -7.304688 5.171875 -5.484375 C 5.171875 -3.910156 5.445312 -2.84375 6 -2.28125 C 6.5625 -1.726562 7.429688 -1.453125 8.609375 -1.453125 C 12.609375 -1.453125 16.585938 -5.332031 20.546875 -13.09375 L 21.703125 -11.875 C 19.921875 -7.40625 17.660156 -3.925781 14.921875 -1.4375 C 12.179688 1.039062 9.238281 2.28125 6.09375 2.28125 Z M 6.09375 2.28125 "/></g></g></g><g fill="#ffffff" fill-opacity="1"><g transform="translate(311.768789, 156.120589)"><g><path d="M 5.03125 2.4375 C 2.945312 2.4375 1.4375 1.75 0.5 0.375 C -0.4375 -0.988281 -0.90625 -2.6875 -0.90625 -4.71875 C -0.90625 -6.851562 -0.460938 -9.0625 0.421875 -11.34375 C 1.304688 -13.625 2.457031 -15.523438 3.875 -17.046875 C 5.300781 -18.566406 6.75 -19.328125 8.21875 -19.328125 C 8.832031 -19.328125 9.617188 -19.128906 10.578125 -18.734375 C 10.878906 -21.066406 11.703125 -22.992188 13.046875 -24.515625 C 14.398438 -26.035156 16.296875 -26.796875 18.734375 -26.796875 C 20.753906 -26.796875 22.25 -26.222656 23.21875 -25.078125 C 24.1875 -23.941406 24.671875 -22.457031 24.671875 -20.625 C 24.671875 -18.851562 24.195312 -16.820312 23.25 -14.53125 C 22.3125 -12.25 21.109375 -9.96875 19.640625 -7.6875 C 20.242188 -7.382812 20.953125 -7.234375 21.765625 -7.234375 C 23.191406 -7.234375 24.71875 -7.703125 26.34375 -8.640625 C 27.96875 -9.578125 29.207031 -11.007812 30.0625 -12.9375 L 31.4375 -11.953125 C 30.375 -9.515625 28.941406 -7.660156 27.140625 -6.390625 C 25.335938 -5.117188 23.472656 -4.484375 21.546875 -4.484375 C 20.378906 -4.484375 19.109375 -4.710938 17.734375 -5.171875 C 15.859375 -2.941406 13.800781 -1.117188 11.5625 0.296875 C 9.332031 1.722656 7.15625 2.4375 5.03125 2.4375 Z M 17.046875 -9.28125 C 18.316406 -11.164062 19.367188 -13.117188 20.203125 -15.140625 C 21.046875 -17.171875 21.46875 -19 21.46875 -20.625 C 21.46875 -22.863281 20.753906 -23.984375 19.328125 -23.984375 C 18.671875 -23.984375 17.988281 -23.648438 17.28125 -22.984375 C 16.570312 -22.328125 15.988281 -21.453125 15.53125 -20.359375 C 15.070312 -19.273438 14.84375 -18.070312 14.84375 -16.75 C 14.84375 -15.582031 15.046875 -14.25 15.453125 -12.75 C 15.859375 -11.25 16.390625 -10.09375 17.046875 -9.28125 Z M 7.765625 -1.453125 C 8.679688 -1.453125 9.796875 -1.957031 11.109375 -2.96875 C 12.429688 -3.976562 13.753906 -5.269531 15.078125 -6.84375 C 12.179688 -9.382812 10.65625 -13.117188 10.5 -18.046875 C 9.894531 -17.734375 9.160156 -16.789062 8.296875 -15.21875 C 7.429688 -13.644531 6.691406 -11.894531 6.078125 -9.96875 C 5.472656 -8.039062 5.171875 -6.367188 5.171875 -4.953125 C 5.171875 -2.617188 6.035156 -1.453125 7.765625 -1.453125 Z M 7.765625 -1.453125 "/></g></g></g><g fill="#ffffff" fill-opacity="1"><g transform="translate(75.972377, 262.461891)"><g><path d="M -1.375 6.703125 C -1.113281 3.753906 0.117188 1.820312 2.328125 0.90625 C 4.535156 0 7.664062 -0.453125 11.71875 -0.453125 C 13.195312 -3.597656 14.566406 -7.582031 15.828125 -12.40625 C 17.097656 -17.226562 18.671875 -23.828125 20.546875 -32.203125 C 20.753906 -33.066406 21.328125 -35.601562 22.265625 -39.8125 C 23.203125 -44.019531 24.050781 -47.21875 24.8125 -49.40625 C 21.15625 -49.351562 17.992188 -49.175781 15.328125 -48.875 C 12.671875 -48.570312 9.820312 -48.140625 6.78125 -47.578125 C 7.28125 -50.117188 8.863281 -51.945312 11.53125 -53.0625 C 14.195312 -54.175781 18.242188 -54.734375 23.671875 -54.734375 C 29.765625 -54.734375 37.125 -54.175781 45.75 -53.0625 C 44.226562 -51.582031 42.742188 -50.613281 41.296875 -50.15625 C 39.847656 -49.707031 38.390625 -49.484375 36.921875 -49.484375 C 33.066406 -49.484375 30.328125 -49.457031 28.703125 -49.40625 L 28.25 -47.125 L 26.34375 -36.546875 C 25.582031 -32.179688 24.753906 -27.660156 23.859375 -22.984375 C 22.972656 -18.316406 22.226562 -14.816406 21.625 -12.484375 C 20.09375 -6.390625 18.265625 -2.328125 16.140625 -0.296875 C 18.671875 -0.0976562 20.597656 0.078125 21.921875 0.234375 C 26.585938 0.734375 30.394531 1.007812 33.34375 1.0625 C 30.34375 3.90625 26.914062 5.328125 23.0625 5.328125 C 16.007812 5.328125 11.097656 5.398438 8.328125 5.546875 C 5.566406 5.703125 2.332031 6.085938 -1.375 6.703125 Z M -1.375 6.703125 "/></g></g></g><g fill="#ffffff" fill-opacity="1"><g transform="translate(112.95954, 262.461891)"><g><path d="M 25.65625 1.515625 C 23.726562 1.515625 22.226562 1.03125 21.15625 0.0625 C 20.09375 -0.894531 19.5625 -2.160156 19.5625 -3.734375 C 19.5625 -4.390625 19.675781 -5.148438 19.90625 -6.015625 C 20.132812 -6.878906 20.375 -7.742188 20.625 -8.609375 C 21.34375 -10.941406 21.703125 -12.664062 21.703125 -13.78125 C 21.703125 -14.789062 21.445312 -15.535156 20.9375 -16.015625 C 20.425781 -16.503906 19.789062 -16.75 19.03125 -16.75 C 16.34375 -16.75 13.628906 -15.0625 10.890625 -11.6875 C 8.148438 -8.3125 5.207031 -4.035156 2.0625 1.140625 C -0.125 1.140625 -1.773438 0.40625 -2.890625 -1.0625 L -2.203125 -2.96875 C 0.785156 -10.226562 2.28125 -15.609375 2.28125 -19.109375 C 2.6875 -19.566406 3.269531 -19.984375 4.03125 -20.359375 C 4.789062 -20.742188 5.53125 -20.9375 6.25 -20.9375 C 7.101562 -20.9375 7.757812 -20.734375 8.21875 -20.328125 C 8.675781 -19.921875 8.90625 -19.363281 8.90625 -18.65625 C 8.90625 -17.28125 8.472656 -15.019531 7.609375 -11.875 C 9.890625 -14.914062 12.257812 -17.398438 14.71875 -19.328125 C 17.1875 -21.265625 19.613281 -22.234375 22 -22.234375 C 24.03125 -22.234375 25.601562 -21.535156 26.71875 -20.140625 C 27.832031 -18.742188 28.390625 -17.082031 28.390625 -15.15625 C 28.390625 -14.03125 28.25 -12.957031 27.96875 -11.9375 C 27.695312 -10.925781 27.28125 -9.789062 26.71875 -8.53125 C 25.851562 -6.394531 25.421875 -4.796875 25.421875 -3.734375 C 25.421875 -2.972656 25.597656 -2.410156 25.953125 -2.046875 C 26.304688 -1.691406 26.738281 -1.515625 27.25 -1.515625 C 28.925781 -1.515625 30.738281 -2.671875 32.6875 -4.984375 C 34.644531 -7.296875 36.410156 -10.023438 37.984375 -13.171875 L 39.28125 -12.109375 C 37.457031 -7.890625 35.441406 -4.5625 33.234375 -2.125 C 31.023438 0.300781 28.5 1.515625 25.65625 1.515625 Z M 25.65625 1.515625 "/></g></g></g><g fill="#ffffff" fill-opacity="1"><g transform="translate(148.957744, 262.461891)"><g><path d="M 6.921875 3.5 C 4.585938 3.5 2.757812 2.828125 1.4375 1.484375 C 0.125 0.140625 -0.53125 -1.847656 -0.53125 -4.484375 C -0.53125 -6.460938 -0.148438 -8.988281 0.609375 -12.0625 C 1.367188 -15.132812 2.382812 -18.394531 3.65625 -21.84375 C 2.332031 -22.101562 1.441406 -22.332031 0.984375 -22.53125 L 0.984375 -24.890625 C 2.203125 -24.742188 3.421875 -24.617188 4.640625 -24.515625 C 6.921875 -30.242188 9.367188 -35.164062 11.984375 -39.28125 C 14.597656 -43.394531 16.71875 -45.453125 18.34375 -45.453125 C 18.90625 -45.453125 19.398438 -45.25 19.828125 -44.84375 C 20.265625 -44.4375 20.484375 -43.898438 20.484375 -43.234375 C 20.484375 -42.421875 20.125 -41.328125 19.40625 -39.953125 C 18.695312 -38.585938 17.53125 -36.507812 15.90625 -33.71875 C 13.675781 -29.96875 11.925781 -26.820312 10.65625 -24.28125 C 16.488281 -24.28125 21.132812 -24.457031 24.59375 -24.8125 L 24.59375 -22.296875 C 18.601562 -21.691406 13.5 -21.390625 9.28125 -21.390625 C 6.644531 -15.148438 5.328125 -10.050781 5.328125 -6.09375 C 5.328125 -4.007812 5.65625 -2.535156 6.3125 -1.671875 C 6.976562 -0.804688 8.019531 -0.375 9.4375 -0.375 C 11.976562 -0.375 14.578125 -1.53125 17.234375 -3.84375 C 19.898438 -6.15625 22.222656 -9.289062 24.203125 -13.25 L 25.28125 -12.484375 C 23.195312 -7.765625 20.503906 -3.921875 17.203125 -0.953125 C 13.898438 2.015625 10.472656 3.5 6.921875 3.5 Z M 6.921875 3.5 "/></g></g></g><g fill="#ffffff" fill-opacity="1"><g transform="translate(170.876305, 262.461891)"><g><path d="M 8.828125 3.34375 C 5.628906 3.34375 3.140625 2.476562 1.359375 0.75 C -0.410156 -0.96875 -1.296875 -3.171875 -1.296875 -5.859375 C -1.296875 -8.804688 -0.304688 -11.988281 1.671875 -15.40625 C 3.648438 -18.832031 6.1875 -21.703125 9.28125 -24.015625 C 12.382812 -26.328125 15.429688 -27.484375 18.421875 -27.484375 C 19.992188 -27.484375 21.3125 -27.085938 22.375 -26.296875 C 23.445312 -25.515625 23.984375 -24.207031 23.984375 -22.375 C 23.984375 -19.945312 23.039062 -17.648438 21.15625 -15.484375 C 19.28125 -13.328125 16.859375 -11.5625 13.890625 -10.1875 C 10.921875 -8.820312 7.890625 -7.960938 4.796875 -7.609375 C 4.691406 -7.097656 4.640625 -6.515625 4.640625 -5.859375 C 4.640625 -4.535156 5.003906 -3.210938 5.734375 -1.890625 C 6.472656 -0.578125 8.0625 0.078125 10.5 0.078125 C 13.601562 0.078125 16.765625 -1.175781 19.984375 -3.6875 C 23.203125 -6.195312 25.800781 -9.332031 27.78125 -13.09375 L 29.3125 -11.875 C 27.28125 -7.3125 24.375 -3.632812 20.59375 -0.84375 C 16.8125 1.945312 12.890625 3.34375 8.828125 3.34375 Z M 5.640625 -10.421875 C 7.460938 -10.628906 9.503906 -11.367188 11.765625 -12.640625 C 14.023438 -13.910156 15.941406 -15.46875 17.515625 -17.3125 C 19.085938 -19.164062 19.875 -20.984375 19.875 -22.765625 C 19.875 -23.316406 19.769531 -23.691406 19.5625 -23.890625 C 19.363281 -24.097656 19.035156 -24.203125 18.578125 -24.203125 C 17.097656 -24.203125 15.484375 -23.503906 13.734375 -22.109375 C 11.984375 -20.710938 10.375 -18.945312 8.90625 -16.8125 C 7.4375 -14.6875 6.347656 -12.554688 5.640625 -10.421875 Z M 5.640625 -10.421875 "/></g></g></g><g fill="#ffffff" fill-opacity="1"><g transform="translate(196.828482, 262.461891)"><g><path d="M 14.078125 1.984375 C 12.203125 1.984375 10.679688 1.488281 9.515625 0.5 C 8.347656 -0.488281 7.765625 -1.820312 7.765625 -3.5 C 7.765625 -4.46875 7.953125 -5.519531 8.328125 -6.65625 C 8.710938 -7.800781 9.285156 -9.1875 10.046875 -10.8125 C 10.703125 -12.226562 11.207031 -13.429688 11.5625 -14.421875 C 11.925781 -15.410156 12.109375 -16.285156 12.109375 -17.046875 C 12.109375 -18.972656 10.835938 -20.597656 8.296875 -21.921875 C 7.285156 -19.390625 6.101562 -16.828125 4.75 -14.234375 C 3.40625 -11.648438 2.203125 -9.46875 1.140625 -7.6875 L 0 -9.890625 C 2.332031 -14.054688 4.390625 -18.648438 6.171875 -23.671875 C 5.660156 -24.179688 5.40625 -24.867188 5.40625 -25.734375 C 5.40625 -27.046875 5.8125 -28.285156 6.625 -29.453125 C 7.4375 -30.628906 8.222656 -31.21875 8.984375 -31.21875 C 9.492188 -31.21875 9.910156 -30.910156 10.234375 -30.296875 C 10.566406 -29.691406 10.734375 -29.1875 10.734375 -28.78125 C 10.734375 -28.570312 10.617188 -28.125 10.390625 -27.4375 C 10.160156 -26.757812 9.992188 -26.265625 9.890625 -25.953125 C 9.941406 -25.597656 10.144531 -25.253906 10.5 -24.921875 C 10.851562 -24.597656 11.515625 -24.128906 12.484375 -23.515625 C 14.265625 -22.347656 15.648438 -21.21875 16.640625 -20.125 C 17.628906 -19.039062 18.125 -17.585938 18.125 -15.765625 C 18.125 -14.640625 17.929688 -13.519531 17.546875 -12.40625 C 17.160156 -11.289062 16.585938 -9.945312 15.828125 -8.375 C 14.710938 -6.144531 14.15625 -4.546875 14.15625 -3.578125 C 14.15625 -2.410156 14.789062 -1.828125 16.0625 -1.828125 C 17.582031 -1.828125 19.242188 -2.4375 21.046875 -3.65625 C 22.847656 -4.875 24.5 -6.359375 26 -8.109375 C 27.5 -9.859375 28.601562 -11.492188 29.3125 -13.015625 L 31.140625 -11.640625 C 30.117188 -9.359375 28.691406 -7.175781 26.859375 -5.09375 C 25.035156 -3.019531 22.992188 -1.320312 20.734375 0 C 18.484375 1.320312 16.265625 1.984375 14.078125 1.984375 Z M 14.078125 1.984375 "/></g></g></g><g fill="#ffffff" fill-opacity="1"><g transform="translate(224.45501, 262.461891)"><g><path d="M 15.078125 -32.046875 C 14.003906 -32.046875 13.097656 -32.300781 12.359375 -32.8125 C 11.628906 -33.320312 11.265625 -34.054688 11.265625 -35.015625 C 11.265625 -36.179688 11.910156 -37.207031 13.203125 -38.09375 C 14.503906 -38.988281 15.890625 -39.4375 17.359375 -39.4375 C 19.535156 -39.4375 20.625 -38.492188 20.625 -36.609375 C 20.625 -35.546875 20.039062 -34.519531 18.875 -33.53125 C 17.707031 -32.539062 16.441406 -32.046875 15.078125 -32.046875 Z M 6.09375 2.28125 C 3.957031 2.28125 2.304688 1.644531 1.140625 0.375 C -0.0234375 -0.882812 -0.609375 -2.503906 -0.609375 -4.484375 C -0.609375 -6.515625 -0.0390625 -9.269531 1.09375 -12.75 C 2.238281 -16.226562 3.6875 -19.285156 5.4375 -21.921875 C 7.1875 -24.554688 8.953125 -25.875 10.734375 -25.875 C 11.390625 -25.875 11.929688 -25.679688 12.359375 -25.296875 C 12.796875 -24.921875 13.015625 -24.378906 13.015625 -23.671875 C 13.015625 -23.210938 12.8125 -22.585938 12.40625 -21.796875 C 12 -21.015625 11.335938 -19.890625 10.421875 -18.421875 C 8.804688 -15.734375 7.523438 -13.359375 6.578125 -11.296875 C 5.640625 -9.242188 5.171875 -7.304688 5.171875 -5.484375 C 5.171875 -3.910156 5.445312 -2.84375 6 -2.28125 C 6.5625 -1.726562 7.429688 -1.453125 8.609375 -1.453125 C 12.609375 -1.453125 16.585938 -5.332031 20.546875 -13.09375 L 21.703125 -11.875 C 19.921875 -7.40625 17.660156 -3.925781 14.921875 -1.4375 C 12.179688 1.039062 9.238281 2.28125 6.09375 2.28125 Z M 6.09375 2.28125 "/></g></g></g><g fill="#ffffff" fill-opacity="1"><g transform="translate(243.024895, 262.461891)"><g><path d="M 5.03125 2.4375 C 2.945312 2.4375 1.4375 1.75 0.5 0.375 C -0.4375 -0.988281 -0.90625 -2.6875 -0.90625 -4.71875 C -0.90625 -6.851562 -0.460938 -9.0625 0.421875 -11.34375 C 1.304688 -13.625 2.457031 -15.523438 3.875 -17.046875 C 5.300781 -18.566406 6.75 -19.328125 8.21875 -19.328125 C 8.832031 -19.328125 9.617188 -19.128906 10.578125 -18.734375 C 10.878906 -21.066406 11.703125 -22.992188 13.046875 -24.515625 C 14.398438 -26.035156 16.296875 -26.796875 18.734375 -26.796875 C 20.753906 -26.796875 22.25 -26.222656 23.21875 -25.078125 C 24.1875 -23.941406 24.671875 -22.457031 24.671875 -20.625 C 24.671875 -18.851562 24.195312 -16.820312 23.25 -14.53125 C 22.3125 -12.25 21.109375 -9.96875 19.640625 -7.6875 C 20.242188 -7.382812 20.953125 -7.234375 21.765625 -7.234375 C 23.191406 -7.234375 24.71875 -7.703125 26.34375 -8.640625 C 27.96875 -9.578125 29.207031 -11.007812 30.0625 -12.9375 L 31.4375 -11.953125 C 30.375 -9.515625 28.941406 -7.660156 27.140625 -6.390625 C 25.335938 -5.117188 23.472656 -4.484375 21.546875 -4.484375 C 20.378906 -4.484375 19.109375 -4.710938 17.734375 -5.171875 C 15.859375 -2.941406 13.800781 -1.117188 11.5625 0.296875 C 9.332031 1.722656 7.15625 2.4375 5.03125 2.4375 Z M 17.046875 -9.28125 C 18.316406 -11.164062 19.367188 -13.117188 20.203125 -15.140625 C 21.046875 -17.171875 21.46875 -19 21.46875 -20.625 C 21.46875 -22.863281 20.753906 -23.984375 19.328125 -23.984375 C 18.671875 -23.984375 17.988281 -23.648438 17.28125 -22.984375 C 16.570312 -22.328125 15.988281 -21.453125 15.53125 -20.359375 C 15.070312 -19.273438 14.84375 -18.070312 14.84375 -16.75 C 14.84375 -15.582031 15.046875 -14.25 15.453125 -12.75 C 15.859375 -11.25 16.390625 -10.09375 17.046875 -9.28125 Z M 7.765625 -1.453125 C 8.679688 -1.453125 9.796875 -1.957031 11.109375 -2.96875 C 12.429688 -3.976562 13.753906 -5.269531 15.078125 -6.84375 C 12.179688 -9.382812 10.65625 -13.117188 10.5 -18.046875 C 9.894531 -17.734375 9.160156 -16.789062 8.296875 -15.21875 C 7.429688 -13.644531 6.691406 -11.894531 6.078125 -9.96875 C 5.472656 -8.039062 5.171875 -6.367188 5.171875 -4.953125 C 5.171875 -2.617188 6.035156 -1.453125 7.765625 -1.453125 Z M 7.765625 -1.453125 "/></g></g></g><g fill="#ffffff" fill-opacity="1"><g transform="translate(271.336363, 262.461891)"><g><path d="M 14.078125 1.984375 C 12.203125 1.984375 10.679688 1.488281 9.515625 0.5 C 8.347656 -0.488281 7.765625 -1.820312 7.765625 -3.5 C 7.765625 -4.46875 7.953125 -5.519531 8.328125 -6.65625 C 8.710938 -7.800781 9.285156 -9.1875 10.046875 -10.8125 C 10.703125 -12.226562 11.207031 -13.429688 11.5625 -14.421875 C 11.925781 -15.410156 12.109375 -16.285156 12.109375 -17.046875 C 12.109375 -18.972656 10.835938 -20.597656 8.296875 -21.921875 C 7.285156 -19.390625 6.101562 -16.828125 4.75 -14.234375 C 3.40625 -11.648438 2.203125 -9.46875 1.140625 -7.6875 L 0 -9.890625 C 2.332031 -14.054688 4.390625 -18.648438 6.171875 -23.671875 C 5.660156 -24.179688 5.40625 -24.867188 5.40625 -25.734375 C 5.40625 -27.046875 5.8125 -28.285156 6.625 -29.453125 C 7.4375 -30.628906 8.222656 -31.21875 8.984375 -31.21875 C 9.492188 -31.21875 9.910156 -30.910156 10.234375 -30.296875 C 10.566406 -29.691406 10.734375 -29.1875 10.734375 -28.78125 C 10.734375 -28.570312 10.617188 -28.125 10.390625 -27.4375 C 10.160156 -26.757812 9.992188 -26.265625 9.890625 -25.953125 C 9.941406 -25.597656 10.144531 -25.253906 10.5 -24.921875 C 10.851562 -24.597656 11.515625 -24.128906 12.484375 -23.515625 C 14.265625 -22.347656 15.648438 -21.21875 16.640625 -20.125 C 17.628906 -19.039062 18.125 -17.585938 18.125 -15.765625 C 18.125 -14.640625 17.929688 -13.519531 17.546875 -12.40625 C 17.160156 -11.289062 16.585938 -9.945312 15.828125 -8.375 C 14.710938 -6.144531 14.15625 -4.546875 14.15625 -3.578125 C 14.15625 -2.410156 14.789062 -1.828125 16.0625 -1.828125 C 17.582031 -1.828125 19.242188 -2.4375 21.046875 -3.65625 C 22.847656 -4.875 24.5 -6.359375 26 -8.109375 C 27.5 -9.859375 28.601562 -11.492188 29.3125 -13.015625 L 31.140625 -11.640625 C 30.117188 -9.359375 28.691406 -7.175781 26.859375 -5.09375 C 25.035156 -3.019531 22.992188 -1.320312 20.734375 0 C 18.484375 1.320312 16.265625 1.984375 14.078125 1.984375 Z M 14.078125 1.984375 "/></g></g></g></svg>